<?xml version="1.0" encoding="UTF-8"?>
<svg id="Layer_1" xmlns="http://www.w3.org/2000/svg" version="1.1" viewBox="0 0 612 612">
  <defs>
    <style>
      .st0 {
        fill: #1718ff;
      }
      .st1 {
        fill: #eaeadf;
      }
    </style>
  </defs>
  <rect class="st0" width="612" height="612"/>
  <g>
    <g>
      <path class="st1" d="M110.28,267.51c-5.64-2.48-11.28-1.69-17.27-1.79v24.83h10.46c1.77,0,5.52,2.09,6.84,3.33,1.05.99.63,1.03-.39,1.94-2.11,1.87-5.37,2.97-8.17,3.06l-8.73-.12v24.83c6.12-.12,11.7.79,17.44-1.82,9.23-4.2,13.96-14.18,11.48-24.07-.19-.76-.97-2.38-.97-2.94,0-.86,1.07-3.22,1.29-4.39,1.76-9.52-3.15-18.98-11.96-22.85ZM113.87,306.03c-1.27,5.47-6.84,9.64-12.45,9.34-.07-1.09-.49-7.99-.01-8.32.13-.09,2.55-.05,3.02-.11,2.04-.24,4.16-.99,6.05-1.77l3.84-2.12c-.23.99-.22,1.97-.45,2.97ZM111.23,284.54c-3.03-1.5-6.41-2.34-9.8-2.22l-.21-8.39c7.03-.24,12.8,5.34,13.1,12.32-.14.13-2.69-1.51-3.08-1.7Z"/>
      <path class="st1" d="M71.33,267.51c-8.82,3.88-13.72,13.33-11.96,22.85.22,1.17,1.3,3.53,1.29,4.39,0,.56-.78,2.18-.97,2.94-2.48,9.88,2.26,19.87,11.48,24.07,5.74,2.61,11.31,1.7,17.44,1.82v-24.83l-8.73.12c-2.8-.09-6.06-1.19-8.17-3.06-1.02-.91-1.44-.96-.39-1.94,1.32-1.24,5.06-3.33,6.84-3.33h10.46v-24.83c-5.99.1-11.64-.69-17.27,1.79ZM71.13,305.18c1.89.78,4.01,1.52,6.05,1.77.47.06,2.9.02,3.02.11.47.33.06,7.24-.01,8.32-5.61.29-11.19-3.87-12.45-9.34-.23-1-.22-1.98-.45-2.97l3.84,2.12ZM80.18,282.32c-3.39-.12-6.78.72-9.8,2.22-.4.2-2.95,1.84-3.08,1.7.3-6.97,6.07-12.56,13.1-12.32l-.21,8.39Z"/>
    </g>
    <g>
      <path class="st1" d="M178.46,287.34c-1.88-2.04-4.08-3.64-6.62-4.8-2.54-1.16-5.24-1.74-8.1-1.74s-5.35.52-7.77,1.57c-2.43,1.05-4.58,2.51-6.45,4.38v-21.09h-9.34v57.97h9.34v-4.13c1.87,1.87,4.02,3.34,6.45,4.38,2.43,1.05,5.02,1.57,7.77,1.57s5.57-.58,8.1-1.74c2.53-1.16,4.74-2.76,6.62-4.8,1.87-2.04,3.36-4.41,4.46-7.11,1.1-2.7,1.65-5.59,1.65-8.68s-.55-5.98-1.65-8.68c-1.1-2.7-2.59-5.07-4.46-7.11ZM174.37,308.43c-.69,1.71-1.63,3.21-2.81,4.51-1.19,1.3-2.58,2.32-4.18,3.06s-3.31,1.12-5.13,1.12-3.43-.37-5-1.12c-1.57-.74-2.94-1.76-4.09-3.06-1.16-1.29-2.08-2.8-2.77-4.51-.69-1.71-1.03-3.5-1.03-5.37s.34-3.65,1.03-5.33c.69-1.68,1.61-3.16,2.77-4.42,1.16-1.27,2.52-2.27,4.09-3.02,1.57-.74,3.24-1.12,5-1.12s3.53.37,5.13,1.12,2.99,1.75,4.18,3.02c1.19,1.27,2.12,2.74,2.81,4.42.69,1.68,1.03,3.46,1.03,5.33s-.35,3.67-1.03,5.37Z"/>
      <rect class="st1" x="189.95" y="265.76" width="9.34" height="57.88"/>
      <path class="st1" d="M236.59,305.78c0,1.49-.28,2.88-.83,4.18-.55,1.3-1.3,2.43-2.23,3.39-.94.97-2.04,1.72-3.31,2.27-1.27.55-2.65.83-4.13.83-1.38,0-2.67-.25-3.89-.74-1.21-.5-2.27-1.21-3.18-2.15-.91-.94-1.63-2.07-2.15-3.39-.53-1.32-.79-2.78-.79-4.38v-23.48h-9.34v24.64c0,2.65.47,5.07,1.41,7.28.94,2.21,2.2,4.11,3.8,5.71,1.6,1.6,3.44,2.84,5.54,3.72,2.09.88,4.33,1.32,6.7,1.32s4.75-.5,6.82-1.49c2.07-.99,3.93-2.37,5.58-4.13v4.3h9.34v-41.35h-9.34v23.48Z"/>
      <path class="st1" d="M293.93,293.75c-1.19-2.56-2.78-4.8-4.8-6.7-2.01-1.9-4.34-3.42-6.99-4.55-2.65-1.13-5.49-1.7-8.52-1.7s-5.91.58-8.64,1.74c-2.73,1.16-5.1,2.76-7.11,4.8-2.01,2.04-3.61,4.41-4.8,7.11-1.19,2.7-1.78,5.6-1.78,8.68s.59,5.98,1.78,8.68c1.18,2.7,2.78,5.07,4.8,7.11,2.01,2.04,4.38,3.64,7.11,4.8,2.73,1.16,5.63,1.74,8.72,1.74,3.97,0,7.59-.94,10.87-2.81,3.28-1.87,5.97-4.38,8.06-7.53l-8.02-3.89c-1.27,1.82-2.83,3.27-4.67,4.34-1.85,1.08-3.87,1.61-6.08,1.61-1.6,0-3.12-.28-4.55-.83-1.43-.55-2.73-1.31-3.89-2.27-1.16-.96-2.14-2.11-2.94-3.43-.8-1.32-1.37-2.76-1.7-4.3h30.35c1.43,0,2.61-.41,3.51-1.24s1.31-1.9,1.2-3.23c-.11-2.87-.76-5.58-1.94-8.14ZM260.98,299.33c.39-1.43.98-2.78,1.78-4.05.8-1.27,1.75-2.36,2.85-3.27,1.1-.91,2.34-1.63,3.72-2.15,1.38-.52,2.84-.79,4.38-.79s2.91.26,4.26.79c1.35.52,2.56,1.24,3.64,2.15,1.07.91,1.99,2,2.73,3.27.74,1.27,1.31,2.62,1.7,4.05h-25.06Z"/>
      <path class="st1" d="M348.54,287.34c-1.87-2.04-4.08-3.64-6.61-4.8-2.54-1.16-5.24-1.74-8.1-1.74s-5.35.52-7.77,1.57c-2.43,1.05-4.58,2.51-6.45,4.38v-21.09h-9.34v57.97h9.34v-4.13c1.87,1.88,4.02,3.34,6.45,4.38,2.43,1.05,5.02,1.57,7.77,1.57s5.57-.58,8.1-1.74c2.53-1.16,4.74-2.76,6.61-4.8,1.87-2.04,3.36-4.41,4.47-7.11,1.1-2.7,1.65-5.59,1.65-8.68s-.55-5.98-1.65-8.68c-1.1-2.7-2.59-5.07-4.47-7.11ZM344.45,308.43c-.69,1.71-1.63,3.21-2.81,4.51-1.19,1.3-2.58,2.32-4.18,3.06-1.6.74-3.31,1.12-5.13,1.12s-3.43-.37-5-1.12c-1.57-.74-2.94-1.76-4.09-3.06-1.16-1.3-2.08-2.8-2.77-4.51-.69-1.71-1.03-3.5-1.03-5.37s.34-3.65,1.03-5.33c.69-1.68,1.61-3.16,2.77-4.42,1.16-1.27,2.52-2.27,4.09-3.02,1.57-.74,3.24-1.12,5-1.12s3.53.37,5.13,1.12c1.6.74,2.99,1.75,4.18,3.02,1.19,1.27,2.12,2.74,2.81,4.42.69,1.68,1.03,3.46,1.03,5.33s-.34,3.67-1.03,5.37Z"/>
      <rect class="st1" x="386.14" y="295.23" width="9.34" height="28.41"/>
      <path class="st1" d="M436.69,286.76c-1.82-1.87-3.94-3.33-6.37-4.38-2.43-1.05-5.02-1.57-7.77-1.57s-5.57.58-8.1,1.74c-.39.18-.75.38-1.12.58-9.39-5.44-21.89-6.04-32-2.23-3.6,1.36-6.65,3.8-10.17,5.29v-4.34h-8.69v42.33h10.31v-24.15c0-1.86,3.38-5.82,4.88-7.06,7.75-6.45,19.33-7.13,28.63-3.74-1.16,1.58-2.15,3.31-2.93,5.22-1.1,2.7-1.65,5.6-1.65,8.68s.55,5.98,1.65,8.68c1.1,2.7,2.59,5.07,4.47,7.11,1.87,2.04,4.08,3.64,6.62,4.8,2.53,1.16,5.24,1.74,8.1,1.74s5.35-.52,7.77-1.57c2.43-1.05,4.55-2.51,6.37-4.38v4.13h9.43v-57.97h-9.43v21.09ZM435.9,308.43c-.69,1.71-1.61,3.21-2.77,4.51-1.16,1.3-2.52,2.32-4.09,3.06-1.57.74-3.24,1.12-5,1.12s-3.53-.37-5.13-1.12c-1.6-.74-2.99-1.76-4.18-3.06-1.19-1.3-2.12-2.8-2.81-4.51-.69-1.71-1.03-3.5-1.03-5.37s.34-3.65,1.03-5.33c.69-1.68,1.63-3.16,2.81-4.42,1.18-1.27,2.58-2.27,4.18-3.02,1.6-.74,3.31-1.12,5.13-1.12s3.43.37,5,1.12c1.57.74,2.94,1.75,4.09,3.02,1.16,1.27,2.08,2.74,2.77,4.42.69,1.68,1.03,3.46,1.03,5.33s-.34,3.67-1.03,5.37Z"/>
      <path class="st1" d="M544.14,293.75c-1.19-2.56-2.78-4.8-4.8-6.7-2.01-1.9-4.34-3.42-6.99-4.55-2.65-1.13-5.49-1.7-8.52-1.7s-5.91.58-8.64,1.74c-2.73,1.16-5.1,2.76-7.11,4.8-2.01,2.04-3.61,4.41-4.8,7.11-1.19,2.7-1.78,5.6-1.78,8.68s.59,5.98,1.78,8.68c1.18,2.7,2.78,5.07,4.8,7.11,2.01,2.04,4.38,3.64,7.11,4.8,2.73,1.16,5.64,1.74,8.72,1.74,3.97,0,7.59-.94,10.87-2.81,3.28-1.87,5.97-4.38,8.06-7.52l-8.02-3.89c-1.27,1.82-2.83,3.27-4.67,4.34-1.85,1.08-3.87,1.61-6.08,1.61-1.6,0-3.11-.28-4.55-.83-1.43-.55-2.73-1.31-3.89-2.27-1.16-.96-2.14-2.11-2.94-3.43-.8-1.32-1.36-2.76-1.7-4.3h30.35c1.43,0,2.6-.41,3.51-1.24.91-.83,1.31-1.9,1.2-3.23-.11-2.87-.76-5.58-1.94-8.14ZM511.19,299.33c.38-1.43.98-2.78,1.78-4.05.8-1.27,1.75-2.36,2.85-3.27,1.1-.91,2.34-1.63,3.72-2.15,1.38-.52,2.84-.79,4.38-.79s2.91.26,4.26.79c1.35.52,2.56,1.24,3.64,2.15,1.08.91,1.98,2,2.73,3.27.74,1.27,1.31,2.62,1.69,4.05h-25.05Z"/>
      <path class="st1" d="M486.46,288.19c-1.88-2.09-4.07-3.75-6.57-4.96-2.51-1.21-5.22-1.82-8.15-1.82s-5.54.58-8.02,1.74c-2.48,1.16-4.66,2.76-6.53,4.8-1.87,2.04-3.35,4.4-4.42,7.07-1.07,2.67-1.61,5.55-1.61,8.64s.54,5.98,1.61,8.68c1.07,2.7,2.55,5.07,4.42,7.11,1.87,2.04,4.05,3.64,6.53,4.8,2.48,1.16,5.15,1.74,8.02,1.74s5.64-.62,8.15-1.86c2.51-1.24,4.7-2.91,6.57-5v4.88c0,2.43-.37,4.51-1.12,6.24-.74,1.74-1.74,3.17-2.98,4.3-1.24,1.13-2.67,1.97-4.3,2.52-1.63.55-3.3.83-5,.83-2.81,0-5.43-.62-7.86-1.86-2.43-1.24-4.66-2.74-6.7-4.51l-5.95,5.95c2.81,2.65,5.97,4.78,9.47,6.41,3.5,1.63,7.23,2.44,11.2,2.44,2.76,0,5.48-.44,8.19-1.32,2.7-.88,5.11-2.25,7.24-4.09,2.12-1.85,3.84-4.2,5.17-7.07,1.32-2.87,1.98-6.28,1.98-10.25v-40.68h-9.34v5.29ZM485.35,308.99c-.69,1.68-1.63,3.17-2.81,4.47-1.19,1.3-2.56,2.32-4.13,3.06-1.57.74-3.27,1.12-5.09,1.12s-3.51-.37-5.09-1.12c-1.57-.74-2.94-1.76-4.09-3.06-1.16-1.29-2.08-2.78-2.77-4.47-.69-1.68-1.03-3.46-1.03-5.33s.34-3.65,1.03-5.33c.69-1.68,1.61-3.16,2.77-4.42,1.16-1.27,2.52-2.27,4.09-3.02,1.57-.74,3.27-1.12,5.09-1.12s3.51.37,5.09,1.12c1.57.74,2.95,1.75,4.13,3.02,1.18,1.27,2.12,2.74,2.81,4.42.69,1.68,1.03,3.46,1.03,5.33s-.35,3.65-1.03,5.33Z"/>
      <polygon class="st1" points="550.72 323.18 549.65 326.78 548.57 323.18 546.32 323.18 546.32 328.85 547.69 328.85 547.69 324.69 548.95 328.85 550.32 328.85 551.59 324.69 551.59 328.85 552.99 328.85 552.99 323.18 550.72 323.18"/>
      <polygon class="st1" points="540.77 324.46 542.37 324.46 542.37 328.85 543.77 328.85 543.77 324.46 545.39 324.46 545.39 323.18 540.77 323.18 540.77 324.46"/>
    </g>
  </g>
</svg>

